# xmcd
#
# Track frame offsets:
#	150
#	18333
#	37124
#	55380
#	78986
#	102432
#	126237
#	137866
#	158593
#	170977
#	192096
#	209268
#
# Disc length: 3001 seconds
#
# Revision: 1
# Processed by: cddbd v1.5.2PL0 Copyright (c) Steve Scherf et al.
# Submitted via: audiograbber 1.83.01
#
DISCID=a90bb70c
DTITLE=Burke Matt - Live
DYEAR=1900
DGENRE=
TTITLE0=You cannot see
TTITLE1=Closure
TTITLE2=Broken Engagement
TTITLE3=Cooma Town
TTITLE4=Crossroads
TTITLE5=Softly spoken
TTITLE6=Almost gone
TTITLE7=Confronted Fears
TTITLE8=G´stanzl
TTITLE9=Lofer i love you
TTITLE10=My obsession
TTITLE11=Another awakening
EXTD=
EXTT0=
EXTT1=
EXTT2=
EXTT3=
EXTT4=
EXTT5=
EXTT6=
EXTT7=
EXTT8=
EXTT9=
EXTT10=
EXTT11=
PLAYORDER=
